<svg width="150" height="198" viewBox="0 0 150 198" fill="none" xmlns="http://www.w3.org/2000/svg">
<path d="M134.689 0H50.4345C41.9239 0 35.1155 6.79828 35.1155 15.2961V61.1846C35.1155 62.8841 36.8176 64.5837 38.5197 64.5837C40.2218 64.5837 41.9239 62.8841 41.9239 61.1846V27.1931H144.051V161.459H41.9239V137.665C41.9239 135.966 40.2218 134.266 38.5197 134.266C36.8176 134.266 35.1155 135.966 35.1155 137.665V182.704C35.1155 191.202 41.9239 198 50.4345 198H134.689C143.199 198 150.008 191.202 150.008 182.704V15.2961C150.008 6.79828 143.199 0 134.689 0ZM41.0728 20.3949V15.2961C41.0728 10.1974 45.3281 5.9485 50.4345 5.9485H134.689C139.795 5.9485 144.051 10.1974 144.051 15.2961V20.3949H41.0728ZM134.689 192.052H50.4345C45.3281 192.052 41.0728 187.803 41.0728 182.704V167.408H143.199V182.704C143.199 187.803 139.795 192.052 134.689 192.052Z" fill="white"/>
<path d="M92.137 187.804C96.3672 187.804 99.7965 184.38 99.7965 180.156C99.7965 175.932 96.3672 172.508 92.137 172.508C87.9068 172.508 84.4775 175.932 84.4775 180.156C84.4775 184.38 87.9068 187.804 92.137 187.804Z" fill="white"/>
<path d="M92.3214 135.906C71.045 135.906 54.0239 118.911 54.0239 97.6661C54.0239 76.4215 71.045 59.4258 92.3214 59.4258C113.598 59.4258 130.619 76.4215 130.619 97.6661C131.47 118.911 113.598 135.906 92.3214 135.906ZM92.3214 65.3743C74.4492 65.3743 59.9813 79.8206 59.9813 97.6661C59.9813 115.512 74.4492 129.958 92.3214 129.958C110.194 129.958 124.662 115.512 124.662 97.6661C124.662 79.8206 110.194 65.3743 92.3214 65.3743Z" fill="white"/>
<path d="M48.7097 126.165H30.0372C28.4135 126.165 26.7898 124.544 26.7898 122.922C26.7898 121.301 28.4135 119.68 30.0372 119.68H48.7097C50.3334 119.68 51.9571 121.301 51.9571 122.922C51.9571 124.544 50.3334 126.165 48.7097 126.165Z" fill="white"/>
<path d="M21.1082 126.165C22.9017 126.165 24.3556 124.713 24.3556 122.922C24.3556 121.131 22.9017 119.68 21.1082 119.68C19.3148 119.68 17.8608 121.131 17.8608 122.922C17.8608 124.713 19.3148 126.165 21.1082 126.165Z" fill="white"/>
<path d="M48.7087 76.7156H21.1058C19.4821 76.7156 17.8584 75.0943 17.8584 73.473C17.8584 71.8518 19.4821 70.2305 21.1058 70.2305H48.7087C50.3323 70.2305 51.9561 71.8518 51.9561 73.473C51.9561 75.9049 50.3323 76.7156 48.7087 76.7156Z" fill="white"/>
<path d="M12.1768 77.5281C13.9703 77.5281 15.4242 76.0763 15.4242 74.2855C15.4242 72.4947 13.9703 71.043 12.1768 71.043C10.3833 71.043 8.92944 72.4947 8.92944 74.2855C8.92944 76.0763 10.3833 77.5281 12.1768 77.5281Z" fill="white"/>
<path d="M15.4239 89.6843C17.2174 89.6843 18.6713 88.2326 18.6713 86.4418C18.6713 84.651 17.2174 83.1992 15.4239 83.1992C13.6304 83.1992 12.1765 84.651 12.1765 86.4418C12.1765 88.2326 13.6304 89.6843 15.4239 89.6843Z" fill="white"/>
<path d="M43.0256 89.6843H24.3531C22.7294 89.6843 21.1057 88.0631 21.1057 86.4418C21.1057 84.8205 22.7294 83.1992 24.3531 83.1992H43.0256C44.6493 83.1992 46.273 84.8205 46.273 86.4418C46.273 88.0631 44.6493 89.6843 43.0256 89.6843Z" fill="white"/>
<path d="M12.1766 114.009C13.9701 114.009 15.424 112.557 15.424 110.766C15.424 108.975 13.9701 107.523 12.1766 107.523C10.3831 107.523 8.9292 108.975 8.9292 110.766C8.9292 112.557 10.3831 114.009 12.1766 114.009Z" fill="white"/>
<path d="M43.0266 114.009H21.9185C20.2948 114.009 18.6711 112.387 18.6711 110.766C18.6711 109.145 20.2948 107.523 21.9185 107.523H43.0266C44.6503 107.523 46.274 109.145 46.274 110.766C45.4621 112.387 44.6503 114.009 43.0266 114.009Z" fill="white"/>
<path d="M3.24741 101.848C5.0409 101.848 6.49482 100.397 6.49482 98.6058C6.49482 96.815 5.0409 95.3633 3.24741 95.3633C1.45392 95.3633 0 96.815 0 98.6058C0 100.397 1.45392 101.848 3.24741 101.848Z" fill="white"/>
<path d="M39.7795 101.848H12.1766C10.5529 101.848 8.9292 100.227 8.9292 98.6058C8.9292 96.9846 10.5529 95.3633 12.1766 95.3633H39.7795C41.4031 95.3633 43.0269 96.9846 43.0269 98.6058C43.0269 100.227 41.4031 101.848 39.7795 101.848Z" fill="white"/>
<path d="M81.7022 118V87.9889H76.2194V79.505H91.6866V118H81.7022Z" fill="white"/>
<path d="M109.936 93.7918H107.983V91.8021C107.983 90.5283 107.794 89.4624 107.415 88.6044C107.036 87.7464 106.507 87.1016 105.83 86.6699C105.152 86.2383 104.365 86.0225 103.468 86.0225C102.614 86.0225 101.846 86.2383 101.163 86.6699C100.485 87.1016 99.9459 87.7464 99.5456 88.6044C99.1507 89.4624 98.9533 90.5283 98.9533 91.8021V93.7918H97V91.8021C97 90.2125 97.2748 88.8439 97.8245 87.6964C98.3795 86.5489 99.1427 85.6672 100.114 85.0513C101.091 84.4354 102.209 84.1275 103.468 84.1275C104.77 84.1275 105.904 84.4354 106.87 85.0513C107.842 85.6672 108.594 86.5489 109.128 87.6964C109.667 88.8439 109.936 90.2125 109.936 91.8021V93.7918ZM104.461 81.6641V93.7918H102.476V81.6641H104.461Z" fill="white"/>
</svg>
