<svg width="183" height="159" viewBox="0 0 183 159" fill="none" xmlns="http://www.w3.org/2000/svg">
<path d="M95.8283 157.354L95.8256 157.354C87.8522 156.346 80.4032 153.069 74.2604 147.862C68.1464 142.684 63.6496 135.875 61.2808 128.173M95.8283 157.354L61.7586 128.026M95.8283 157.354C97.5844 157.566 99.3286 157.68 101.074 157.68C107.615 157.68 114.056 156.133 119.915 153.14C127.364 149.338 133.436 143.435 137.451 136.087L137.452 136.085C138.263 134.59 139.123 133.114 139.97 131.658C140.14 131.366 140.31 131.075 140.478 130.785L95.8283 157.354ZM61.2808 128.173C61.2808 128.173 61.2807 128.173 61.2807 128.173L61.7586 128.026M61.2808 128.173C61.2809 128.173 61.2811 128.174 61.2812 128.174L61.7586 128.026M61.2808 128.173C60.9206 127.015 60.5847 125.571 60.236 124.072C60.1983 123.91 60.1604 123.747 60.1224 123.584L60.122 123.582C59.3169 120.079 58.42 116.222 57.0883 113.817M61.7586 128.026C61.4041 126.886 61.0725 125.461 60.7224 123.956C60.6849 123.795 60.6472 123.633 60.6093 123.47C59.8103 119.994 58.8993 116.055 57.5257 113.575M57.0883 113.817C57.0883 113.817 57.0883 113.817 57.0884 113.817L57.5257 113.575M57.0883 113.817C54.3997 108.966 48.4863 102.033 42.176 94.6404L42.1757 94.6401L41.8723 94.284C35.9185 87.2968 29.7554 80.0641 25.7096 73.8152C23.4269 70.2925 21.9915 67.3653 21.3692 64.8765C20.5694 61.7054 21.0869 59.1363 23.0464 57.362C24.7596 55.8037 26.9707 55.4496 29.5219 56.2016C31.4839 56.7729 33.6845 58.0189 36.228 59.9407L36.229 59.9415C40.7125 63.3462 45.5462 68.3388 50.1961 73.1416L50.3161 73.2655L50.3161 73.2655L50.4229 73.3759C53.8383 76.9024 57.0294 80.1974 59.6265 82.3685L59.6265 82.3686C61.1921 83.6778 62.1746 84.2625 62.7528 84.5182C62.8892 84.5786 63.0001 84.6193 63.0883 84.6468C63.1005 84.4046 63.0849 83.9961 62.9632 83.3492L62.9625 83.3452C62.7469 82.1462 62.2426 80.5564 61.4324 78.4612L26.1292 73.5433C30.1569 79.7643 36.3023 86.9763 42.2676 93.977L42.5563 94.3158C48.8496 101.688 54.8065 108.669 57.5257 113.575M57.0883 113.817L57.5257 113.575M102.516 61.3683C101.762 57.8914 100.951 53.2079 100.11 48.2439L100.11 48.2438C98.6107 39.4183 96.8971 29.3731 94.6055 20.7548C93.2207 15.5387 91.7808 11.4169 90.2267 8.29089C88.6748 5.16932 86.9894 3.00047 85.092 1.74045L85.0911 1.73984C83.3737 0.604865 81.5239 0.23466 79.5995 0.688973C76.6289 1.37848 74.6978 3.79933 73.7615 7.61645L73.7613 7.61756C73.0288 10.6335 72.8497 14.6029 73.2299 19.7279C73.8915 28.9202 76.1982 40.1401 78.2286 49.9982L78.2287 49.9984L78.2957 50.3233C79.3652 55.5057 80.3686 60.3681 80.9291 64.0865L80.9291 64.0869C81.2755 66.3731 81.3984 67.8668 81.4206 68.8354C80.8984 68.125 80.1757 67.0118 79.2117 65.2833L102.516 61.3683ZM102.516 61.3683L102.027 61.475L102.516 61.369C102.516 61.3688 102.516 61.3685 102.516 61.3683ZM46.3547 21.5979C47.7844 20.8971 49.3262 20.827 50.938 21.3737C58.3106 23.9107 66.0616 39.8335 72.8876 53.878M46.3547 21.5979L46.1354 21.1486M46.3547 21.5979C44 22.7473 42.7525 25.032 42.6264 28.3679M46.3547 21.5979L46.1346 21.149C46.1349 21.1488 46.1351 21.1487 46.1354 21.1486M46.1354 21.1486C47.6939 20.3849 49.3733 20.315 51.0986 20.9001L51.1007 20.9009C53.0607 21.5753 54.996 23.1181 56.889 25.2125C58.788 27.3135 60.6797 30.0093 62.544 33.0491C66.2719 39.1274 69.9271 46.643 73.3373 53.6595M46.1354 21.1486L42.6264 28.3679M73.3373 53.6595C73.3372 53.6593 73.3371 53.6592 73.337 53.659L72.8876 53.878M73.3373 53.6595C75.4834 58.0641 77.5091 62.2129 79.2111 65.2823L72.8876 53.878M73.3373 53.6595L72.8876 53.878M42.6264 28.3679C42.5283 31.017 43.145 34.353 44.4765 38.572C46.8266 45.9933 51.1305 55.0182 54.9704 63.0702L55.199 63.5495L55.3563 63.8774L42.6264 28.3679ZM134.149 134.247L134.149 134.246C135.162 132.404 136.216 130.591 137.239 128.839L137.247 128.826L137.255 128.814L137.303 128.742C142.959 119.064 153.187 111.537 162.117 104.965L162.183 104.916C162.183 104.916 162.183 104.916 162.183 104.916C167.923 100.687 172.45 97.2511 175.136 94.2223C176.476 92.7105 177.319 91.3411 177.643 90.0656C177.961 88.8152 177.789 87.6223 177.026 86.4108C176.274 85.2181 175.332 84.5271 174.184 84.2151C173.018 83.8981 171.596 83.9607 169.88 84.3686C166.437 85.1875 162.008 87.3451 156.486 90.1907C156.486 90.1908 156.486 90.1908 156.486 90.1908L156.398 90.2362C151.573 92.7252 146.541 95.3209 141.776 96.6885C136.042 98.3389 131.477 97.9553 127.915 95.3501C126.068 94.004 124.707 91.8381 123.759 88.8241C122.812 85.8105 122.266 81.9101 122.076 77.0391C122.076 77.039 122.076 77.0389 122.076 77.0388L122.575 77.0194L134.149 134.247ZM134.149 134.247C126.651 147.943 111.81 155.523 96.3152 153.572C81.6418 151.719 69.3146 141.318 64.9001 127.067C64.5553 125.908 64.1947 124.37 63.8156 122.727L63.8024 122.669C62.9701 119.049 62.0049 114.85 60.4018 111.973C57.5541 106.835 51.6045 99.8553 45.3319 92.4962L45.0533 92.1693L45.0532 92.1692L44.9703 92.072C38.9899 85.0574 32.8444 77.8494 28.8899 71.7441C26.8533 68.5916 25.594 66.0371 25.0779 64.0758C24.559 62.1034 24.8235 60.879 25.5952 60.1782C26.225 59.6144 27.1739 59.45 28.5839 59.8837C29.9992 60.319 31.7802 61.3329 33.9279 62.9663L33.9289 62.967C38.1834 66.1856 42.9031 71.0628 47.5122 75.8256L47.5933 75.9094L47.5935 75.9096L47.7294 76.0499C51.1764 79.6073 54.4548 82.9908 57.1908 85.2801L57.1912 85.2804C58.4281 86.3136 59.8709 87.4106 61.3017 88.0198C62.7357 88.6305 64.2816 88.7971 65.5766 87.7528L65.5772 87.7523C66.4996 87.006 66.9019 85.9105 66.9085 84.5305C66.915 83.1662 66.5377 81.4716 65.8524 79.4272C64.4808 75.3352 61.812 69.6653 58.1868 62.0999L58.1195 61.9595C54.2626 53.9101 49.9306 44.8694 47.6163 37.5659L47.1396 37.717L47.6163 37.5659C46.4028 33.7372 45.8479 30.7348 45.9171 28.5484C45.9863 26.3612 46.6685 25.1189 47.792 24.5709C48.4148 24.2713 49.0614 24.2384 49.8504 24.5096C51.2864 25.0033 52.8988 26.3629 54.6248 28.4081C56.3385 30.4387 58.1145 33.0842 59.8909 36.0583C63.34 41.8328 66.7573 48.7889 69.6943 54.7674C69.7824 54.9467 69.8701 55.1252 69.9573 55.3028C72.6946 60.9315 74.8202 65.2469 76.5893 68.2632C77.4741 69.7716 78.2804 70.9739 79.0409 71.8598C79.7952 72.7384 80.542 73.3508 81.3198 73.6106C82.0585 73.862 82.8156 73.8142 83.4878 73.4696L83.488 73.4695C84.3062 73.0494 84.8126 72.3062 85.0672 71.2319C85.3166 70.1792 85.3358 68.7685 85.1697 66.9247C84.8372 63.2317 83.7402 57.6074 82.0113 49.2078L82.0113 49.2076C79.9911 39.4151 77.7284 28.3624 77.0725 19.4168L77.0725 19.4165C76.7235 14.6985 76.8817 11.0314 77.5079 8.48573L77.5082 8.48454C78.1381 5.89636 79.1681 4.66835 80.5112 4.35454C81.3774 4.16266 82.1922 4.31175 83.0397 4.87263C84.3745 5.75608 85.7348 7.57468 87.083 10.4102C88.4244 13.2311 89.7255 16.9971 90.9758 21.6979C93.1987 30.0893 94.8843 39.9516 96.3786 48.694L96.4046 48.8461L96.4046 48.8462L134.149 134.247ZM123.142 49.203L123.155 49.0182C123.753 40.5577 124.317 32.5907 124.206 25.9935L124.206 25.9931C124.15 22.4844 123.892 19.6238 123.442 17.4195C122.988 15.1998 122.352 13.7115 121.59 12.8812L121.589 12.8804C121.087 12.3299 120.542 12.0745 119.852 12.0621H119.852H119.852H119.852H119.851H119.851H119.851H119.851H119.851H119.851H119.851H119.851H119.851H119.851H119.851H119.851H119.85H119.85H119.85H119.85H119.85H119.85H119.85H119.85H119.85H119.85H119.85H119.85H119.849H119.849H119.849H119.849H119.849H119.849H119.849H119.849H119.849H119.849H119.849H119.849H119.848H119.848H119.848H119.848H119.848H119.848H119.848H119.848H119.848H119.848H119.848H119.848H119.847H119.847H119.847H119.847H119.847H119.847H119.847H119.847H119.847H119.847H119.847H119.846H119.846H119.846H119.846H119.846H119.846H119.846H119.846H119.846H119.846H119.846H119.846H119.845H119.845H119.845H119.845H119.845H119.845H119.845H119.845H119.845H119.845H119.845H119.844H119.844H119.844H119.844H119.844H119.844H119.844H119.844H119.844H119.844H119.844H119.843H119.843H119.843H119.843H119.843H119.843H119.843H119.843H119.843H119.843H119.843H119.843H119.842H119.842H119.842H119.842H119.842H119.842H119.842H119.842H119.842H119.842H119.842H119.841H119.841H119.841H119.841H119.841H119.841H119.841H119.841H119.841H119.841H119.84H119.84H119.84H119.84H119.84H119.84H119.84H119.84H119.84H119.84H119.84H119.839H119.839H119.839H119.839H119.839H119.839H119.839H119.839H119.839H119.839H119.839H119.838H119.838H119.838H119.838H119.838H119.838H119.838H119.838H119.838H119.838H119.837H119.837H119.837H119.837H119.837H119.837H119.837H119.837H119.837H119.837H119.837H119.836H119.836H119.836H119.836H119.836H119.836H119.836H119.836H119.836H119.836H119.835H119.835H119.835H119.835H119.835H119.835H119.835H119.835H119.835H119.835H119.834H119.834H119.834H119.834H119.834H119.834H119.834H119.834H119.834H119.833H119.833H119.833H119.833H119.833H119.833H119.833H119.833H119.833H119.833H119.832H119.832H119.832H119.832H119.832H119.832H119.832H119.832H119.832H119.832H119.831H119.831H119.831H119.831H119.831H119.831H119.831H119.831H119.831H119.83H119.83H119.83H119.83H119.83H119.83H119.83H119.83H119.83H119.829H119.829H119.829H119.829H119.829H119.829H119.829H119.829H119.829H119.828H119.828H119.828H119.828H119.828H119.828H119.828H119.828H119.828H119.827H119.827H119.827H119.827H119.827H119.827H119.827H119.827H119.827H119.826H119.826H119.826H119.826H119.826H119.826H119.826H119.826H119.826H119.825H119.825H119.825H119.825H119.825H119.825H119.825H119.825H119.824H119.824H119.824H119.824H119.824H119.824H119.824H119.824H119.824H119.823H119.823H119.823H119.823H119.823H119.823H119.823H119.823H119.822H119.822H119.822H119.822H119.822H119.822H119.822H119.822H119.821H119.821H119.821H119.821H119.821H119.821H119.821H119.821H119.82H119.82H119.82H119.82H119.82H119.82H119.82H119.82H119.819H119.819H119.819H119.819H119.819H119.819H119.819H119.819H119.818H119.818H119.818H119.818H119.818H119.818H119.818H119.818H119.817H119.817H119.817H119.817H119.817H119.817H119.817H119.816H119.816H119.816H119.816H119.816H119.816H119.816H119.816H119.815H119.815H119.815H119.815H119.815H119.815H119.815H119.814H119.814H119.814H119.814H119.814H119.814H119.814H119.814H119.813H119.813H119.813H119.813H119.813H119.813H119.813H119.812H119.812H119.812H119.812H119.812H119.812H119.812H119.811H119.811H119.811H119.811H119.811H119.811H119.811H119.81H119.81H119.81H119.81H119.81H119.81H119.81H119.809H119.809H119.809H119.809H119.809H119.809H119.809H119.808H119.808H119.808H119.808H119.808H119.808H119.807H119.807H119.807H119.807H119.807H119.807H119.807H119.806H119.806H119.806H119.806H119.806H119.806H119.806H119.805H119.805H119.805H119.805H119.805H119.805H119.804H119.804H119.804H119.804H119.804H119.804H119.803H119.803H119.803H119.803H119.803H119.803H119.803H119.802H119.802H119.802H119.802H119.802H119.802H119.801H119.801H119.801H119.801H119.801H119.801H119.8H119.8H119.8C118.808 12.0621 117.743 12.8071 116.676 14.6128C115.621 16.3966 114.647 19.0845 113.797 22.6529L113.797 22.6533C112.124 29.6509 111.16 38.8936 110.304 47.1038L110.304 47.1044L110.259 47.5251C109.66 53.2065 109.093 58.5845 108.35 62.5346C107.978 64.5122 107.52 66.4729 106.811 67.9483C106.105 69.4156 105.07 70.5585 103.488 70.5671L103.485 70.5672L103.471 70.5672C102.229 70.5672 101.381 69.7573 100.742 68.516C100.107 67.2834 99.6054 65.4954 99.0876 63.2562C99.0875 63.256 99.0875 63.2558 99.0874 63.2556L99.5746 63.143C98.7415 59.5648 97.9218 54.7625 96.9727 49.2026L123.142 49.203ZM123.142 49.203C123.142 49.2031 123.142 49.2032 123.142 49.2033L123.142 49.203ZM103.887 66.3743C103.81 66.1842 103.723 65.9491 103.627 65.6589C103.524 65.9523 103.429 66.1824 103.345 66.3619C103.44 66.6111 103.524 66.8049 103.597 66.9555C103.681 66.8165 103.779 66.6283 103.887 66.3743ZM110.063 21.8044L110.549 21.9203L110.063 21.8042C110.063 21.8043 110.063 21.8043 110.063 21.8044ZM154.71 86.835L154.71 86.8352L174.968 81.0421L175.094 80.5582C175.094 80.5582 175.094 80.5581 175.093 80.558C173.265 80.0824 171.172 80.1657 168.74 80.7523L168.74 80.7523C164.544 81.7661 159.812 84.205 154.894 86.7403L154.71 86.835ZM180.213 84.4053L179.79 84.6724L180.213 84.406C180.213 84.4058 180.213 84.4056 180.213 84.4053ZM126.416 49.4628L126.915 49.4982L126.915 49.4979L126.416 49.4628ZM125.85 76.916C125.85 76.9159 125.85 76.9158 125.85 76.9156L125.351 76.9353L125.85 76.916ZM130.13 92.3138L129.836 92.7179L130.132 92.3148C130.131 92.3145 130.131 92.3141 130.13 92.3138Z" fill="white" stroke="url(#paint0_linear_8777_37338)"/>
<path d="M159.149 49.5266L159.167 49.5279H159.186H159.186H159.186H159.186H159.187H159.187H159.187H159.187H159.187H159.188H159.188H159.188H159.188H159.189H159.189H159.189H159.189H159.19H159.19H159.19H159.19H159.191H159.191H159.191H159.191H159.192H159.192H159.192H159.192H159.193H159.193H159.193H159.193H159.194H159.194H159.194H159.194H159.194H159.195H159.195H159.195H159.195H159.196H159.196H159.196H159.196H159.197H159.197H159.197H159.197H159.197H159.198H159.198H159.198H159.198H159.199H159.199H159.199H159.199H159.2H159.2H159.2H159.2H159.2H159.201H159.201H159.201H159.201H159.202H159.202H159.202H159.202H159.203H159.203H159.203H159.203H159.203H159.204H159.204H159.204H159.204H159.205H159.205H159.205H159.205H159.205H159.206H159.206H159.206H159.206H159.207H159.207H159.207H159.207H159.207H159.208H159.208H159.208H159.208H159.209H159.209H159.209H159.209H159.209H159.21H159.21H159.21H159.21H159.211H159.211H159.211H159.211H159.211H159.212H159.212H159.212H159.212H159.213H159.213H159.213H159.213H159.213H159.214H159.214H159.214H159.214H159.214H159.215H159.215H159.215H159.215H159.216H159.216H159.216H159.216H159.216H159.217H159.217H159.217H159.217H159.217H159.218H159.218H159.218H159.218H159.219H159.219H159.219H159.219H159.219H159.22H159.22H159.22H159.22H159.22H159.221H159.221H159.221H159.221H159.221H159.222H159.222H159.222H159.222H159.223H159.223H159.223H159.223H159.223H159.224H159.224H159.224H159.224H159.224H159.225H159.225H159.225H159.225H159.225H159.226H159.226H159.226H159.226H159.227H159.227H159.227H159.227H159.227H159.228H159.228H159.228H159.228H159.228H159.229H159.229H159.229H159.229H159.229H159.23H159.23H159.23H159.23H159.23H159.231H159.231H159.231H159.231H159.232H159.232H159.232H159.232H159.232H159.233H159.233H159.233H159.233H159.233H159.234H159.234H159.234H159.234H159.234H159.235H159.235H159.235H159.235H159.235H159.236H159.236H159.236H159.236H159.236H159.237H159.237H159.237H159.237H159.237H159.238H159.238H159.238H159.238H159.239H159.239H159.239H159.239H159.239H159.24H159.24H159.24H159.24H159.24H159.241H159.241H159.241H159.241H159.241H159.242H159.242H159.242H159.242H159.242H159.243H159.243H159.243H159.243H159.243H159.244H159.244H159.244H159.244H159.244H159.245H159.245H159.245H159.245H159.246H159.246H159.246H159.246H159.246H159.247H159.247H159.247H159.247H159.247H159.248H159.248H159.248H159.248H159.248H159.249H159.249H159.249H159.249H159.249H159.25H159.25H159.25H159.25H159.25H159.251H159.251H159.251H159.251H159.251H159.252H159.252H159.252H159.252H159.253H159.253H159.253H159.253H159.253H159.254H159.254H159.254H159.254H159.254H159.255H159.255H159.255H159.255H159.255H159.256H159.256H159.256H159.256H159.256H159.257H159.257H159.257H159.257H159.258H159.258H159.258H159.258H159.258H159.259H159.259H159.259H159.259H159.259H159.26H159.26H159.26H159.26H159.26H159.261H159.261H159.261H159.261H159.262H159.262H159.262H159.262H159.262H159.263H159.263H159.263H159.263H159.263H159.264H159.264H159.264H159.264H159.264H159.265H159.265H159.265H159.265H159.266H159.266H159.266H159.266H159.266H159.267H159.267H159.267H159.267H159.267H159.268H159.268H159.268H159.268H159.269H159.269H159.269H159.269H159.269H159.27H159.27H159.27H159.27H159.27H159.271H159.271H159.271H159.271H159.272H159.272H159.272H159.272H159.272H159.273H159.273H159.273H159.273H159.274H159.274H159.274H159.274H159.274H159.275H159.275H159.275H159.275H159.276H159.276H159.276H159.276H159.276H159.277H159.277H159.277H159.277H159.278H159.278H159.278H159.278H159.278H159.279H159.279H159.279H159.279H159.28H159.28H159.28H159.28H159.28H159.281H159.281H159.281H159.281H159.282H159.282H159.282H159.282H159.283H159.283H159.283H159.283H159.283H159.284H159.284H159.284H159.284H159.285H159.285H159.285H159.285H159.285H159.286H159.286H159.286H159.286H159.287H159.287H159.287H159.287H159.288H159.288H159.288H159.288H159.289H159.289H159.289H159.289H159.289H159.29H159.29H159.29H159.29H159.291H159.291H159.291H159.291H159.292H159.292H159.292H159.292H159.293H159.293H159.293H159.293H159.294H159.294H159.294H159.294H159.294H159.295H159.295H159.295H159.295H159.296H159.296H159.296H159.296H159.297H159.297H159.297H159.297H159.298C160.265 49.5279 161.109 48.7737 161.17 47.7875C162.108 36.1044 157.192 28.3885 152.915 23.9691C148.396 19.2961 143.685 17.3015 143.296 17.1369C143.288 17.1336 143.282 17.131 143.278 17.1292L143.278 17.1291L143.271 17.1264C142.294 16.7242 141.193 17.2057 140.796 18.1693C140.394 19.146 140.876 20.2474 141.839 20.6442L141.873 20.6581L141.878 20.6593C141.883 20.6615 141.89 20.6641 141.897 20.6671C141.929 20.6806 141.978 20.7016 142.042 20.7303C142.17 20.7875 142.357 20.8743 142.594 20.992C143.069 21.2274 143.742 21.5855 144.542 22.0762C146.142 23.0583 148.244 24.5676 150.275 26.6815L150.275 26.6819C155.65 32.2629 158.06 39.2536 157.398 47.474L157.397 47.4778C157.322 48.5147 158.094 49.4498 159.149 49.5266ZM141.853 20.6496C141.853 20.6494 141.855 20.6502 141.861 20.6523C141.856 20.6507 141.854 20.6497 141.853 20.6496Z" fill="white" stroke="url(#paint1_linear_8777_37338)"/>
<path d="M166.55 44.628L166.55 44.6318C166.484 45.5444 167.071 46.3735 167.93 46.6154C168.187 46.6878 168.443 46.6964 168.68 46.6683C169.558 46.5637 170.267 45.8618 170.323 44.9411C170.552 42.0818 170.485 39.3142 170.121 36.6525C169.483 31.9867 167.925 27.643 165.501 23.7366C162.865 19.4909 159.262 15.8802 155.145 13.0863C152.454 11.2606 150.414 10.3853 150.121 10.2599C150.109 10.2545 150.099 10.2505 150.093 10.2479L150.093 10.2478L150.083 10.2436C149.623 10.0541 149.132 10.0612 148.702 10.2233C148.224 10.4037 147.818 10.7773 147.608 11.2865C147.206 12.2632 147.688 13.3646 148.651 13.7614L148.685 13.7752L148.69 13.7765C148.697 13.7793 148.705 13.7829 148.716 13.7872C148.753 13.8029 148.809 13.8271 148.883 13.86C149.03 13.9258 149.244 14.0255 149.517 14.1606C150.061 14.4309 150.834 14.842 151.753 15.4055C153.592 16.533 156.009 18.2666 158.349 20.6961C162.531 25.0459 165.147 30.1163 166.175 35.8555C166.67 38.621 166.798 41.5469 166.55 44.628Z" fill="white" stroke="url(#paint2_linear_8777_37338)"/>
<path d="M11.5872 92.9846L11.587 92.9841C9.35407 86.7402 9.6785 81.5612 9.69478 81.3169L9.69498 81.3139L9.69499 81.3139C9.77083 80.2711 10.6798 79.4716 11.7297 79.548C12.7725 79.6238 13.572 80.5329 13.4956 81.5827L13.4953 81.5827C13.475 82.0316 13.2989 86.5458 15.2049 91.8039C17.858 99.0898 23.0605 104.328 30.7427 107.362C30.7428 107.362 30.7429 107.362 30.743 107.362L30.5594 107.827C31.2742 108.108 31.6386 108.921 31.3443 109.65L11.5872 92.9846ZM11.5872 92.9846C13.6689 98.7876 18.4348 106.585 29.3343 110.898C29.5736 110.997 29.8217 111.033 30.0408 111.033C30.7942 111.033 31.5194 110.582 31.8094 109.833L11.5872 92.9846Z" fill="white" stroke="url(#paint3_linear_8777_37338)"/>
<path d="M9.21801 108.666L9.21846 108.666C12.778 112.625 17.3284 115.722 22.7603 117.864C22.9995 117.963 23.2474 117.999 23.4664 117.999C24.2139 117.999 24.9449 117.553 25.2224 116.81C25.6172 115.821 25.1211 114.722 24.1543 114.343C15.3362 110.845 9.33531 104.822 6.28987 96.4296C4.09397 90.3709 4.30616 85.1651 4.32799 84.6803L4.32823 84.6804C4.40458 83.6305 3.60508 82.7215 2.56229 82.6456C1.51246 82.5693 0.603439 83.3688 0.527601 84.4116L0.527553 84.4116L0.527147 84.4185C0.527045 84.4202 0.526928 84.4222 0.526798 84.4244C0.50677 84.7622 0.160777 90.5979 2.67202 97.6098L2.67205 97.6099C4.16496 101.776 6.37033 105.491 9.21801 108.666Z" fill="white" stroke="url(#paint4_linear_8777_37338)"/>
<defs>
<linearGradient id="paint0_linear_8777_37338" x1="101.3" y1="1" x2="101.3" y2="157.18" gradientUnits="userSpaceOnUse">
<stop stop-color="#89898A"/>
<stop offset="0.49" stop-color="white"/>
<stop offset="1" stop-color="#89898A"/>
</linearGradient>
<linearGradient id="paint1_linear_8777_37338" x1="150.97" y1="17.4844" x2="150.97" y2="49.0279" gradientUnits="userSpaceOnUse">
<stop stop-color="#89898A"/>
<stop offset="0.49" stop-color="white"/>
<stop offset="1" stop-color="#89898A"/>
</linearGradient>
<linearGradient id="paint2_linear_8777_37338" x1="158.961" y1="10.6016" x2="158.961" y2="46.1832" gradientUnits="userSpaceOnUse">
<stop stop-color="#89898A"/>
<stop offset="0.49" stop-color="white"/>
<stop offset="1" stop-color="#89898A"/>
</linearGradient>
<linearGradient id="paint3_linear_8777_37338" x1="20.808" y1="80.043" x2="20.808" y2="110.533" gradientUnits="userSpaceOnUse">
<stop stop-color="#89898A"/>
<stop offset="0.49" stop-color="white"/>
<stop offset="1" stop-color="#89898A"/>
</linearGradient>
<linearGradient id="paint4_linear_8777_37338" x1="12.9291" y1="83.1406" x2="12.9291" y2="117.499" gradientUnits="userSpaceOnUse">
<stop stop-color="#89898A"/>
<stop offset="0.49" stop-color="white"/>
<stop offset="1" stop-color="#89898A"/>
</linearGradient>
</defs>
</svg>
