<svg width="162" height="162" viewBox="0 0 162 162" fill="none" xmlns="http://www.w3.org/2000/svg">
<mask id="path-1-outside-1_8777_37210" maskUnits="userSpaceOnUse" x="0" y="0" width="162" height="162" fill="black">
<rect fill="white" width="162" height="162"/>
<path fill-rule="evenodd" clip-rule="evenodd" d="M82.787 4.75962L91.3901 18.0448L93.0215 20.564L95.4927 18.8609L108.525 9.87921L111.232 8.01352L111.827 11.2469L114.691 26.8132L115.234 29.7648L118.169 29.137L133.646 25.8263L136.861 25.1386L136.174 28.3535L132.863 43.8309L132.235 46.7658L135.187 47.3089L150.753 50.1731L153.986 50.768L152.121 53.4751L143.139 66.5073L141.436 68.9785L143.955 70.6099L157.24 79.213L160 81L157.24 82.787L143.955 91.3901L141.436 93.0215L143.139 95.4927L152.121 108.525L153.986 111.232L150.753 111.827L135.187 114.691L132.235 115.234L132.863 118.169L136.174 133.646L136.861 136.861L133.646 136.174L118.169 132.863L115.234 132.235L114.691 135.187L111.827 150.753L111.232 153.986L108.525 152.121L95.4927 143.139L93.0215 141.436L91.3901 143.955L82.787 157.24L81 160L79.213 157.24L70.6099 143.955L68.9785 141.436L66.5073 143.139L53.4751 152.121L50.768 153.986L50.1731 150.753L47.3089 135.187L46.7658 132.235L43.8309 132.863L28.3535 136.174L25.1386 136.861L25.8263 133.646L29.137 118.169L29.7648 115.234L26.8132 114.691L11.2469 111.827L8.01352 111.232L9.87921 108.525L18.8609 95.4927L20.564 93.0215L18.0448 91.3901L4.75962 82.787L2 81L4.75962 79.213L18.0448 70.6099L20.564 68.9785L18.8609 66.5073L9.87921 53.4751L8.01352 50.768L11.2469 50.1731L26.8132 47.3089L29.7648 46.7658L29.137 43.8309L25.8263 28.3535L25.1386 25.1386L28.3535 25.8263L43.8309 29.137L46.7658 29.7648L47.3089 26.8132L50.1731 11.2469L50.768 8.01352L53.4751 9.87921L66.5073 18.8609L68.9785 20.564L70.6099 18.0448L79.213 4.75962L81 2L82.787 4.75962ZM94.7239 23.0342L109.12 13.1126L112.284 30.3077L112.842 33.3443L115.862 32.6985L132.959 29.0413L129.302 46.1382L128.656 49.1575L131.692 49.7162L148.887 52.8801L138.966 67.2761L137.214 69.8184L139.805 71.4967L154.481 81L139.805 90.5033L137.214 92.1816L138.966 94.7239L148.887 109.12L131.692 112.284L128.656 112.842L129.302 115.862L132.959 132.959L115.862 129.302L112.842 128.656L112.284 131.692L109.12 148.887L94.7239 138.966L92.1816 137.214L90.5033 139.805L81 154.481L71.4967 139.805L69.8184 137.214L67.2761 138.966L52.8801 148.887L49.7162 131.692L49.1575 128.656L46.1382 129.302L29.0413 132.959L32.6985 115.862L33.3443 112.842L30.3077 112.284L13.1126 109.12L23.0342 94.7239L24.7863 92.1816L22.1947 90.5033L7.51925 81L22.1947 71.4967L24.7863 69.8184L23.0342 67.2761L13.1126 52.8801L30.3077 49.7162L33.3443 49.1575L32.6985 46.1382L29.0413 29.0413L46.1382 32.6985L49.1575 33.3443L49.7162 30.3077L52.8801 13.1126L67.2761 23.0342L69.8184 24.7863L71.4967 22.1947L81 7.51925L90.5033 22.1947L92.1816 24.7863L94.7239 23.0342ZM80.2539 88.9562C80.4724 89.1747 80.7456 89.284 81.0734 89.284C81.4012 89.284 81.6562 89.1747 81.8383 88.9562C82.0568 88.7012 82.1661 88.3552 82.1661 87.9181L83.0403 61.748C83.0403 61.0924 82.8764 60.5825 82.5485 60.2183C82.2207 59.8176 81.729 59.6173 81.0734 59.6173C80.4178 59.6173 79.9079 59.8176 79.5436 60.2183C79.2158 60.5825 79.0701 61.0924 79.1066 61.748L79.9261 87.9181C79.9625 88.3552 80.0718 88.7012 80.2539 88.9562ZM79.2705 97.9163C79.744 98.3897 80.3449 98.6265 81.0734 98.6265C81.8383 98.6265 82.4393 98.3897 82.8764 97.9163C83.3499 97.4427 83.5866 96.8418 83.5866 96.1133C83.5866 95.3848 83.3499 94.7839 82.8764 94.3104C82.4393 93.8369 81.8383 93.6001 81.0734 93.6001C80.3449 93.6001 79.744 93.8369 79.2705 94.3104C78.797 94.7839 78.5602 95.3848 78.5602 96.1133C78.5602 96.8418 78.797 97.4427 79.2705 97.9163Z"/>
</mask>
<path fill-rule="evenodd" clip-rule="evenodd" d="M82.787 4.75962L91.3901 18.0448L93.0215 20.564L95.4927 18.8609L108.525 9.87921L111.232 8.01352L111.827 11.2469L114.691 26.8132L115.234 29.7648L118.169 29.137L133.646 25.8263L136.861 25.1386L136.174 28.3535L132.863 43.8309L132.235 46.7658L135.187 47.3089L150.753 50.1731L153.986 50.768L152.121 53.4751L143.139 66.5073L141.436 68.9785L143.955 70.6099L157.24 79.213L160 81L157.24 82.787L143.955 91.3901L141.436 93.0215L143.139 95.4927L152.121 108.525L153.986 111.232L150.753 111.827L135.187 114.691L132.235 115.234L132.863 118.169L136.174 133.646L136.861 136.861L133.646 136.174L118.169 132.863L115.234 132.235L114.691 135.187L111.827 150.753L111.232 153.986L108.525 152.121L95.4927 143.139L93.0215 141.436L91.3901 143.955L82.787 157.24L81 160L79.213 157.24L70.6099 143.955L68.9785 141.436L66.5073 143.139L53.4751 152.121L50.768 153.986L50.1731 150.753L47.3089 135.187L46.7658 132.235L43.8309 132.863L28.3535 136.174L25.1386 136.861L25.8263 133.646L29.137 118.169L29.7648 115.234L26.8132 114.691L11.2469 111.827L8.01352 111.232L9.87921 108.525L18.8609 95.4927L20.564 93.0215L18.0448 91.3901L4.75962 82.787L2 81L4.75962 79.213L18.0448 70.6099L20.564 68.9785L18.8609 66.5073L9.87921 53.4751L8.01352 50.768L11.2469 50.1731L26.8132 47.3089L29.7648 46.7658L29.137 43.8309L25.8263 28.3535L25.1386 25.1386L28.3535 25.8263L43.8309 29.137L46.7658 29.7648L47.3089 26.8132L50.1731 11.2469L50.768 8.01352L53.4751 9.87921L66.5073 18.8609L68.9785 20.564L70.6099 18.0448L79.213 4.75962L81 2L82.787 4.75962ZM94.7239 23.0342L109.12 13.1126L112.284 30.3077L112.842 33.3443L115.862 32.6985L132.959 29.0413L129.302 46.1382L128.656 49.1575L131.692 49.7162L148.887 52.8801L138.966 67.2761L137.214 69.8184L139.805 71.4967L154.481 81L139.805 90.5033L137.214 92.1816L138.966 94.7239L148.887 109.12L131.692 112.284L128.656 112.842L129.302 115.862L132.959 132.959L115.862 129.302L112.842 128.656L112.284 131.692L109.12 148.887L94.7239 138.966L92.1816 137.214L90.5033 139.805L81 154.481L71.4967 139.805L69.8184 137.214L67.2761 138.966L52.8801 148.887L49.7162 131.692L49.1575 128.656L46.1382 129.302L29.0413 132.959L32.6985 115.862L33.3443 112.842L30.3077 112.284L13.1126 109.12L23.0342 94.7239L24.7863 92.1816L22.1947 90.5033L7.51925 81L22.1947 71.4967L24.7863 69.8184L23.0342 67.2761L13.1126 52.8801L30.3077 49.7162L33.3443 49.1575L32.6985 46.1382L29.0413 29.0413L46.1382 32.6985L49.1575 33.3443L49.7162 30.3077L52.8801 13.1126L67.2761 23.0342L69.8184 24.7863L71.4967 22.1947L81 7.51925L90.5033 22.1947L92.1816 24.7863L94.7239 23.0342ZM80.2539 88.9562C80.4724 89.1747 80.7456 89.284 81.0734 89.284C81.4012 89.284 81.6562 89.1747 81.8383 88.9562C82.0568 88.7012 82.1661 88.3552 82.1661 87.9181L83.0403 61.748C83.0403 61.0924 82.8764 60.5825 82.5485 60.2183C82.2207 59.8176 81.729 59.6173 81.0734 59.6173C80.4178 59.6173 79.9079 59.8176 79.5436 60.2183C79.2158 60.5825 79.0701 61.0924 79.1066 61.748L79.9261 87.9181C79.9625 88.3552 80.0718 88.7012 80.2539 88.9562ZM79.2705 97.9163C79.744 98.3897 80.3449 98.6265 81.0734 98.6265C81.8383 98.6265 82.4393 98.3897 82.8764 97.9163C83.3499 97.4427 83.5866 96.8418 83.5866 96.1133C83.5866 95.3848 83.3499 94.7839 82.8764 94.3104C82.4393 93.8369 81.8383 93.6001 81.0734 93.6001C80.3449 93.6001 79.744 93.8369 79.2705 94.3104C78.797 94.7839 78.5602 95.3848 78.5602 96.1133C78.5602 96.8418 78.797 97.4427 79.2705 97.9163Z" fill="white"/>
<path d="M91.3901 18.0448L92.2295 17.5013L91.3901 18.0448ZM82.787 4.75962L83.6264 4.21607V4.21607L82.787 4.75962ZM93.0215 20.564L92.1821 21.1076L92.7415 21.9714L93.5889 21.3874L93.0215 20.564ZM95.4927 18.8609L94.9252 18.0375V18.0375L95.4927 18.8609ZM108.525 9.87921L107.957 9.05581V9.05581L108.525 9.87921ZM111.232 8.01352L112.215 7.83256L111.936 6.31381L110.665 7.19013L111.232 8.01352ZM111.827 11.2469L110.843 11.4279V11.4279L111.827 11.2469ZM114.691 26.8132L113.708 26.9941V26.9941L114.691 26.8132ZM115.234 29.7648L114.251 29.9458L114.437 30.958L115.443 30.7427L115.234 29.7648ZM118.169 29.137L117.96 28.1592L118.169 29.137ZM133.646 25.8263L133.856 26.8042L133.646 25.8263ZM136.861 25.1386L137.839 25.3477L138.162 23.8377L136.652 24.1607L136.861 25.1386ZM136.174 28.3535L137.152 28.5627V28.5627L136.174 28.3535ZM132.863 43.8309L131.885 43.6217L132.863 43.8309ZM132.235 46.7658L131.257 46.5566L131.042 47.563L132.054 47.7493L132.235 46.7658ZM135.187 47.3089L135.006 48.2924L135.187 47.3089ZM150.753 50.1731L150.934 49.1896L150.753 50.1731ZM153.986 50.768L154.81 51.3355L155.686 50.064L154.167 49.7845L153.986 50.768ZM152.121 53.4751L151.297 52.9076L152.121 53.4751ZM143.139 66.5073L143.963 67.0748L143.139 66.5073ZM141.436 68.9785L140.613 68.4111L140.029 69.2585L140.892 69.8179L141.436 68.9785ZM143.955 70.6099L143.412 71.4492L143.955 70.6099ZM157.24 79.213L156.697 80.0523L157.24 79.213ZM160 81L160.544 81.8394L161.84 81L160.544 80.1606L160 81ZM157.24 82.787L156.697 81.9477L157.24 82.787ZM143.955 91.3901L143.412 90.5508L143.955 91.3901ZM141.436 93.0215L140.892 92.1821L140.029 92.7415L140.613 93.5889L141.436 93.0215ZM143.139 95.4927L143.963 94.9252L143.139 95.4927ZM152.121 108.525L151.297 109.092L152.121 108.525ZM153.986 111.232L154.167 112.215L155.686 111.936L154.81 110.665L153.986 111.232ZM150.753 111.827L150.572 110.843H150.572L150.753 111.827ZM135.187 114.691L135.006 113.708L135.187 114.691ZM132.235 115.234L132.054 114.251L131.042 114.437L131.257 115.443L132.235 115.234ZM132.863 118.169L131.885 118.378L132.863 118.169ZM136.174 133.646L137.152 133.437L136.174 133.646ZM136.861 136.861L136.652 137.839L138.162 138.162L137.839 136.652L136.861 136.861ZM133.646 136.174L133.437 137.152L133.646 136.174ZM118.169 132.863L118.378 131.885L118.169 132.863ZM115.234 132.235L115.443 131.257L114.437 131.042L114.251 132.054L115.234 132.235ZM114.691 135.187L113.708 135.006L114.691 135.187ZM111.827 150.753L110.843 150.572V150.572L111.827 150.753ZM111.232 153.986L110.665 154.81L111.936 155.686L112.215 154.167L111.232 153.986ZM108.525 152.121L109.092 151.297L108.525 152.121ZM95.4927 143.139L94.9252 143.963L95.4927 143.139ZM93.0215 141.436L93.5889 140.613L92.7415 140.029L92.1821 140.892L93.0215 141.436ZM91.3901 143.955L90.5508 143.412L91.3901 143.955ZM82.787 157.24L81.9477 156.697L82.787 157.24ZM81 160L80.1606 160.544L81 161.84L81.8394 160.544L81 160ZM79.213 157.24L80.0523 156.697L79.213 157.24ZM70.6099 143.955L71.4492 143.412L70.6099 143.955ZM68.9785 141.436L69.8179 140.892L69.2585 140.029L68.4111 140.613L68.9785 141.436ZM66.5073 143.139L67.0748 143.963L66.5073 143.139ZM53.4751 152.121L52.9076 151.297L53.4751 152.121ZM50.768 153.986L49.7845 154.167L50.064 155.686L51.3355 154.81L50.768 153.986ZM50.1731 150.753L49.1896 150.934L50.1731 150.753ZM47.3089 135.187L48.2924 135.006L47.3089 135.187ZM46.7658 132.235L47.7493 132.054L47.563 131.042L46.5566 131.257L46.7658 132.235ZM43.8309 132.863L43.6217 131.885L43.8309 132.863ZM28.3535 136.174L28.5627 137.152H28.5627L28.3535 136.174ZM25.1386 136.861L24.1607 136.652L23.8377 138.162L25.3477 137.839L25.1386 136.861ZM25.8263 133.646L26.8042 133.856L25.8263 133.646ZM29.137 118.169L28.1592 117.96L29.137 118.169ZM29.7648 115.234L30.7427 115.443L30.958 114.437L29.9458 114.251L29.7648 115.234ZM26.8132 114.691L26.9941 113.708H26.9941L26.8132 114.691ZM11.2469 111.827L11.4279 110.843H11.4279L11.2469 111.827ZM8.01352 111.232L7.19013 110.665L6.31381 111.936L7.83256 112.215L8.01352 111.232ZM9.87921 108.525L9.05581 107.957H9.05581L9.87921 108.525ZM18.8609 95.4927L18.0375 94.9252H18.0375L18.8609 95.4927ZM20.564 93.0215L21.3874 93.5889L21.9714 92.7415L21.1076 92.1821L20.564 93.0215ZM18.0448 91.3901L17.5013 92.2295L18.0448 91.3901ZM4.75962 82.787L4.21607 83.6264H4.21607L4.75962 82.787ZM2 81L1.45645 80.1606L0.160254 81L1.45645 81.8394L2 81ZM4.75962 79.213L4.21607 78.3736H4.21607L4.75962 79.213ZM18.0448 70.6099L17.5013 69.7705L18.0448 70.6099ZM20.564 68.9785L21.1076 69.8179L21.9714 69.2585L21.3874 68.4111L20.564 68.9785ZM18.8609 66.5073L18.0375 67.0748H18.0375L18.8609 66.5073ZM9.87921 53.4751L10.7026 52.9076L9.87921 53.4751ZM8.01352 50.768L7.83256 49.7845L6.31381 50.064L7.19013 51.3355L8.01352 50.768ZM11.2469 50.1731L11.4279 51.1565L11.2469 50.1731ZM26.8132 47.3089L26.6322 46.3254L26.8132 47.3089ZM29.7648 46.7658L29.9458 47.7493L30.958 47.563L30.7427 46.5566L29.7648 46.7658ZM29.137 43.8309L28.1592 44.0401L29.137 43.8309ZM25.8263 28.3535L24.8484 28.5627L24.8484 28.5627L25.8263 28.3535ZM25.1386 25.1386L25.3477 24.1607L23.8377 23.8377L24.1607 25.3477L25.1386 25.1386ZM28.3535 25.8263L28.5627 24.8484L28.5627 24.8484L28.3535 25.8263ZM43.8309 29.137L44.0401 28.1592L43.8309 29.137ZM46.7658 29.7648L46.5566 30.7427L47.563 30.958L47.7493 29.9458L46.7658 29.7648ZM47.3089 26.8132L46.3254 26.6322L47.3089 26.8132ZM50.1731 11.2469L51.1565 11.4279L50.1731 11.2469ZM50.768 8.01352L51.3355 7.19013L50.064 6.31381L49.7845 7.83256L50.768 8.01352ZM53.4751 9.87921L52.9076 10.7026L53.4751 9.87921ZM66.5073 18.8609L67.0748 18.0375V18.0375L66.5073 18.8609ZM68.9785 20.564L68.4111 21.3874L69.2585 21.9714L69.8179 21.1076L68.9785 20.564ZM70.6099 18.0448L69.7705 17.5013L70.6099 18.0448ZM79.213 4.75962L78.3736 4.21607V4.21607L79.213 4.75962ZM81 2L81.8394 1.45645L81 0.160254L80.1606 1.45645L81 2ZM109.12 13.1126L110.103 12.9317L109.824 11.4129L108.552 12.2892L109.12 13.1126ZM94.7239 23.0342L94.1564 22.2108L94.7239 23.0342ZM112.284 30.3077L113.267 30.1268L112.284 30.3077ZM112.842 33.3443L111.859 33.5253L112.045 34.5375L113.052 34.3222L112.842 33.3443ZM115.862 32.6985L115.653 31.7206L115.862 32.6985ZM132.959 29.0413L133.937 29.2504L134.26 27.7404L132.75 28.0634L132.959 29.0413ZM129.302 46.1382L128.324 45.9291L129.302 46.1382ZM128.656 49.1575L127.678 48.9483L127.463 49.9547L128.475 50.141L128.656 49.1575ZM131.692 49.7162L131.511 50.6997L131.692 49.7162ZM148.887 52.8801L149.711 53.4476L150.587 52.1761L149.068 51.8966L148.887 52.8801ZM138.966 67.2761L139.789 67.8436L138.966 67.2761ZM137.214 69.8184L136.39 69.2509L135.806 70.0984L136.67 70.6578L137.214 69.8184ZM139.805 71.4967L139.262 72.336V72.336L139.805 71.4967ZM154.481 81L155.024 81.8394L156.32 81L155.024 80.1606L154.481 81ZM139.805 90.5033L139.262 89.664V89.664L139.805 90.5033ZM137.214 92.1816L136.67 91.3422L135.806 91.9016L136.39 92.7491L137.214 92.1816ZM138.966 94.7239L139.789 94.1564L138.966 94.7239ZM148.887 109.12L149.068 110.103L150.587 109.824L149.711 108.552L148.887 109.12ZM131.692 112.284L131.873 113.267L131.692 112.284ZM128.656 112.842L128.475 111.859L127.463 112.045L127.678 113.052L128.656 112.842ZM129.302 115.862L128.324 116.071L129.302 115.862ZM132.959 132.959L132.75 133.937L134.26 134.26L133.937 132.75L132.959 132.959ZM115.862 129.302L116.071 128.324L115.862 129.302ZM112.842 128.656L113.052 127.678L112.045 127.463L111.859 128.475L112.842 128.656ZM112.284 131.692L113.267 131.873L112.284 131.692ZM109.12 148.887L108.552 149.711L109.824 150.587L110.103 149.068L109.12 148.887ZM94.7239 138.966L94.1564 139.789L94.7239 138.966ZM92.1816 137.214L92.7491 136.39L91.9016 135.806L91.3422 136.67L92.1816 137.214ZM90.5033 139.805L89.664 139.262H89.664L90.5033 139.805ZM81 154.481L80.1606 155.024L81 156.32L81.8394 155.024L81 154.481ZM71.4967 139.805L72.336 139.262H72.336L71.4967 139.805ZM69.8184 137.214L70.6578 136.67L70.0984 135.806L69.2509 136.39L69.8184 137.214ZM67.2761 138.966L67.8436 139.789L67.2761 138.966ZM52.8801 148.887L51.8966 149.068L52.1761 150.587L53.4476 149.711L52.8801 148.887ZM49.7162 131.692L50.6997 131.511L49.7162 131.692ZM49.1575 128.656L50.141 128.475L49.9547 127.463L48.9483 127.678L49.1575 128.656ZM46.1382 129.302L45.9291 128.324L46.1382 129.302ZM29.0413 132.959L28.0634 132.75L27.7404 134.26L29.2504 133.937L29.0413 132.959ZM32.6985 115.862L31.7206 115.653L32.6985 115.862ZM33.3443 112.842L34.3222 113.052L34.5375 112.045L33.5253 111.859L33.3443 112.842ZM30.3077 112.284L30.1268 113.267L30.3077 112.284ZM13.1126 109.12L12.2892 108.552L11.4129 109.824L12.9317 110.103L13.1126 109.12ZM23.0342 94.7239L22.2108 94.1564L23.0342 94.7239ZM24.7863 92.1816L25.6097 92.7491L26.1937 91.9016L25.3299 91.3422L24.7863 92.1816ZM22.1947 90.5033L22.7382 89.664L22.1947 90.5033ZM7.51925 81L6.97569 80.1606L5.6795 81L6.97569 81.8394L7.51925 81ZM22.1947 71.4967L22.7382 72.336L22.1947 71.4967ZM24.7863 69.8184L25.3299 70.6578L26.1937 70.0984L25.6097 69.2509L24.7863 69.8184ZM23.0342 67.2761L22.2108 67.8436H22.2108L23.0342 67.2761ZM13.1126 52.8801L12.9317 51.8966L11.4129 52.1761L12.2892 53.4476L13.1126 52.8801ZM30.3077 49.7162L30.4887 50.6997L30.3077 49.7162ZM33.3443 49.1575L33.5253 50.141L34.5375 49.9547L34.3222 48.9483L33.3443 49.1575ZM32.6985 46.1382L31.7206 46.3474L32.6985 46.1382ZM29.0413 29.0413L29.2504 28.0634L27.7404 27.7404L28.0634 29.2504L29.0413 29.0413ZM46.1382 32.6985L46.3474 31.7206L46.1382 32.6985ZM49.1575 33.3443L48.9483 34.3222L49.9547 34.5375L50.141 33.5253L49.1575 33.3443ZM49.7162 30.3077L50.6997 30.4887L49.7162 30.3077ZM52.8801 13.1126L53.4476 12.2892L52.1761 11.4129L51.8966 12.9317L52.8801 13.1126ZM67.2761 23.0342L67.8436 22.2108V22.2108L67.2761 23.0342ZM69.8184 24.7863L69.2509 25.6097L70.0984 26.1937L70.6578 25.3299L69.8184 24.7863ZM71.4967 22.1947L72.336 22.7382L71.4967 22.1947ZM81 7.51925L81.8394 6.97569L81 5.6795L80.1606 6.97569L81 7.51925ZM90.5033 22.1947L89.664 22.7382L90.5033 22.1947ZM92.1816 24.7863L91.3422 25.3299L91.9016 26.1937L92.7491 25.6097L92.1816 24.7863ZM80.2539 88.9562L79.4401 89.5374L79.4883 89.6047L79.5468 89.6633L80.2539 88.9562ZM81.8383 88.9562L81.079 88.3053L81.0701 88.316L81.8383 88.9562ZM82.1661 87.9181L81.1667 87.8847L81.1661 87.9014V87.9181H82.1661ZM83.0403 61.748L84.0397 61.7814L84.0403 61.7647V61.748H83.0403ZM82.5485 60.2183L81.7746 60.8515L81.7895 60.8697L81.8052 60.8872L82.5485 60.2183ZM79.5436 60.2183L78.8037 59.5456L78.8003 59.5493L79.5436 60.2183ZM79.1066 61.748L80.1061 61.7167L80.1057 61.7047L80.105 61.6926L79.1066 61.748ZM79.9261 87.9181L78.9266 87.9494L78.9274 87.9753L78.9295 88.0011L79.9261 87.9181ZM82.8764 97.9163L82.1692 97.2091L82.1551 97.2233L82.1415 97.238L82.8764 97.9163ZM82.8764 94.3104L82.1415 94.9886L82.1551 95.0033L82.1692 95.0175L82.8764 94.3104ZM79.2705 94.3104L79.9776 95.0175L79.9776 95.0175L79.2705 94.3104ZM92.2295 17.5013L83.6264 4.21607L81.9477 5.30318L90.5508 18.5884L92.2295 17.5013ZM93.8608 20.0205L92.2295 17.5013L90.5508 18.5884L92.1821 21.1076L93.8608 20.0205ZM94.9252 18.0375L92.454 19.7406L93.5889 21.3874L96.0601 19.6843L94.9252 18.0375ZM107.957 9.05581L94.9252 18.0375L96.0601 19.6843L109.092 10.7026L107.957 9.05581ZM110.665 7.19013L107.957 9.05581L109.092 10.7026L111.799 8.83691L110.665 7.19013ZM112.81 11.066L112.215 7.83256L110.249 8.19448L110.843 11.4279L112.81 11.066ZM115.675 26.6322L112.81 11.066L110.843 11.4279L113.708 26.9941L115.675 26.6322ZM116.218 29.5839L115.675 26.6322L113.708 26.9941L114.251 29.9458L116.218 29.5839ZM117.96 28.1592L115.025 28.787L115.443 30.7427L118.378 30.1149L117.96 28.1592ZM133.437 24.8484L117.96 28.1592L118.378 30.1149L133.856 26.8042L133.437 24.8484ZM136.652 24.1607L133.437 24.8484L133.856 26.8042L137.071 26.1164L136.652 24.1607ZM137.152 28.5627L137.839 25.3477L135.884 24.9294L135.196 28.1444L137.152 28.5627ZM133.841 44.0401L137.152 28.5627L135.196 28.1444L131.885 43.6217L133.841 44.0401ZM133.213 46.9749L133.841 44.0401L131.885 43.6217L131.257 46.5566L133.213 46.9749ZM135.368 46.3254L132.416 45.7823L132.054 47.7493L135.006 48.2924L135.368 46.3254ZM150.934 49.1896L135.368 46.3254L135.006 48.2924L150.572 51.1565L150.934 49.1896ZM154.167 49.7845L150.934 49.1896L150.572 51.1565L153.806 51.7515L154.167 49.7845ZM152.944 54.0426L154.81 51.3355L153.163 50.2005L151.297 52.9076L152.944 54.0426ZM143.963 67.0748L152.944 54.0426L151.297 52.9076L142.316 65.9399L143.963 67.0748ZM142.259 69.546L143.963 67.0748L142.316 65.9399L140.613 68.4111L142.259 69.546ZM144.499 69.7705L141.98 68.1392L140.892 69.8179L143.412 71.4492L144.499 69.7705ZM157.784 78.3736L144.499 69.7705L143.412 71.4492L156.697 80.0523L157.784 78.3736ZM160.544 80.1606L157.784 78.3736L156.697 80.0523L159.456 81.8394L160.544 80.1606ZM157.784 83.6264L160.544 81.8394L159.456 80.1606L156.697 81.9477L157.784 83.6264ZM144.499 92.2295L157.784 83.6264L156.697 81.9477L143.412 90.5508L144.499 92.2295ZM141.98 93.8608L144.499 92.2295L143.412 90.5508L140.892 92.1821L141.98 93.8608ZM143.963 94.9252L142.259 92.454L140.613 93.5889L142.316 96.0601L143.963 94.9252ZM152.944 107.957L143.963 94.9252L142.316 96.0601L151.297 109.092L152.944 107.957ZM154.81 110.665L152.944 107.957L151.297 109.092L153.163 111.799L154.81 110.665ZM150.934 112.81L154.167 112.215L153.806 110.249L150.572 110.843L150.934 112.81ZM135.368 115.675L150.934 112.81L150.572 110.843L135.006 113.708L135.368 115.675ZM132.416 116.218L135.368 115.675L135.006 113.708L132.054 114.251L132.416 116.218ZM133.841 117.96L133.213 115.025L131.257 115.443L131.885 118.378L133.841 117.96ZM137.152 133.437L133.841 117.96L131.885 118.378L135.196 133.856L137.152 133.437ZM137.839 136.652L137.152 133.437L135.196 133.856L135.884 137.071L137.839 136.652ZM133.437 137.152L136.652 137.839L137.071 135.884L133.856 135.196L133.437 137.152ZM117.96 133.841L133.437 137.152L133.856 135.196L118.378 131.885L117.96 133.841ZM115.025 133.213L117.96 133.841L118.378 131.885L115.443 131.257L115.025 133.213ZM115.675 135.368L116.218 132.416L114.251 132.054L113.708 135.006L115.675 135.368ZM112.81 150.934L115.675 135.368L113.708 135.006L110.843 150.572L112.81 150.934ZM112.215 154.167L112.81 150.934L110.843 150.572L110.249 153.806L112.215 154.167ZM107.957 152.944L110.665 154.81L111.799 153.163L109.092 151.297L107.957 152.944ZM94.9252 143.963L107.957 152.944L109.092 151.297L96.0601 142.316L94.9252 143.963ZM92.454 142.259L94.9252 143.963L96.0601 142.316L93.5889 140.613L92.454 142.259ZM92.2295 144.499L93.8608 141.98L92.1821 140.892L90.5508 143.412L92.2295 144.499ZM83.6264 157.784L92.2295 144.499L90.5508 143.412L81.9477 156.697L83.6264 157.784ZM81.8394 160.544L83.6264 157.784L81.9477 156.697L80.1606 159.456L81.8394 160.544ZM78.3736 157.784L80.1606 160.544L81.8394 159.456L80.0523 156.697L78.3736 157.784ZM69.7705 144.499L78.3736 157.784L80.0523 156.697L71.4492 143.412L69.7705 144.499ZM68.1392 141.98L69.7705 144.499L71.4492 143.412L69.8179 140.892L68.1392 141.98ZM67.0748 143.963L69.546 142.259L68.4111 140.613L65.9399 142.316L67.0748 143.963ZM54.0426 152.944L67.0748 143.963L65.9399 142.316L52.9076 151.297L54.0426 152.944ZM51.3355 154.81L54.0426 152.944L52.9076 151.297L50.2005 153.163L51.3355 154.81ZM49.1896 150.934L49.7845 154.167L51.7515 153.806L51.1565 150.572L49.1896 150.934ZM46.3254 135.368L49.1896 150.934L51.1565 150.572L48.2924 135.006L46.3254 135.368ZM45.7823 132.416L46.3254 135.368L48.2924 135.006L47.7493 132.054L45.7823 132.416ZM44.0401 133.841L46.9749 133.213L46.5566 131.257L43.6217 131.885L44.0401 133.841ZM28.5627 137.152L44.0401 133.841L43.6217 131.885L28.1444 135.196L28.5627 137.152ZM25.3477 137.839L28.5627 137.152L28.1444 135.196L24.9294 135.884L25.3477 137.839ZM24.8484 133.437L24.1607 136.652L26.1164 137.071L26.8042 133.856L24.8484 133.437ZM28.1592 117.96L24.8484 133.437L26.8042 133.856L30.1149 118.378L28.1592 117.96ZM28.787 115.025L28.1592 117.96L30.1149 118.378L30.7427 115.443L28.787 115.025ZM26.6322 115.675L29.5839 116.218L29.9458 114.251L26.9941 113.708L26.6322 115.675ZM11.066 112.81L26.6322 115.675L26.9941 113.708L11.4279 110.843L11.066 112.81ZM7.83256 112.215L11.066 112.81L11.4279 110.843L8.19448 110.249L7.83256 112.215ZM9.05581 107.957L7.19013 110.665L8.83691 111.799L10.7026 109.092L9.05581 107.957ZM18.0375 94.9252L9.05581 107.957L10.7026 109.092L19.6843 96.0601L18.0375 94.9252ZM19.7406 92.454L18.0375 94.9252L19.6843 96.0601L21.3874 93.5889L19.7406 92.454ZM17.5013 92.2295L20.0205 93.8608L21.1076 92.1821L18.5884 90.5508L17.5013 92.2295ZM4.21607 83.6264L17.5013 92.2295L18.5884 90.5508L5.30318 81.9477L4.21607 83.6264ZM1.45645 81.8394L4.21607 83.6264L5.30318 81.9477L2.54355 80.1606L1.45645 81.8394ZM4.21607 78.3736L1.45645 80.1606L2.54355 81.8394L5.30318 80.0523L4.21607 78.3736ZM17.5013 69.7705L4.21607 78.3736L5.30318 80.0523L18.5884 71.4492L17.5013 69.7705ZM20.0205 68.1392L17.5013 69.7705L18.5884 71.4492L21.1076 69.8179L20.0205 68.1392ZM18.0375 67.0748L19.7406 69.546L21.3874 68.4111L19.6843 65.9399L18.0375 67.0748ZM9.05581 54.0426L18.0375 67.0748L19.6843 65.9399L10.7026 52.9076L9.05581 54.0426ZM7.19013 51.3355L9.05581 54.0426L10.7026 52.9076L8.83691 50.2005L7.19013 51.3355ZM11.066 49.1896L7.83256 49.7845L8.19448 51.7515L11.4279 51.1565L11.066 49.1896ZM26.6322 46.3254L11.066 49.1896L11.4279 51.1565L26.9941 48.2924L26.6322 46.3254ZM29.5839 45.7823L26.6322 46.3254L26.9941 48.2924L29.9458 47.7493L29.5839 45.7823ZM28.1592 44.0401L28.787 46.9749L30.7427 46.5566L30.1149 43.6217L28.1592 44.0401ZM24.8484 28.5627L28.1592 44.0401L30.1149 43.6217L26.8042 28.1444L24.8484 28.5627ZM24.1607 25.3477L24.8484 28.5627L26.8042 28.1444L26.1164 24.9294L24.1607 25.3477ZM28.5627 24.8484L25.3477 24.1607L24.9294 26.1164L28.1444 26.8042L28.5627 24.8484ZM44.0401 28.1592L28.5627 24.8484L28.1444 26.8042L43.6217 30.1149L44.0401 28.1592ZM46.9749 28.787L44.0401 28.1592L43.6217 30.1149L46.5566 30.7427L46.9749 28.787ZM46.3254 26.6322L45.7823 29.5839L47.7493 29.9458L48.2924 26.9941L46.3254 26.6322ZM49.1896 11.066L46.3254 26.6322L48.2924 26.9941L51.1565 11.4279L49.1896 11.066ZM49.7845 7.83256L49.1896 11.066L51.1565 11.4279L51.7515 8.19448L49.7845 7.83256ZM54.0426 9.05581L51.3355 7.19013L50.2005 8.83691L52.9076 10.7026L54.0426 9.05581ZM67.0748 18.0375L54.0426 9.05581L52.9076 10.7026L65.9399 19.6843L67.0748 18.0375ZM69.546 19.7406L67.0748 18.0375L65.9399 19.6843L68.4111 21.3874L69.546 19.7406ZM69.7705 17.5013L68.1392 20.0205L69.8179 21.1076L71.4492 18.5884L69.7705 17.5013ZM78.3736 4.21607L69.7705 17.5013L71.4492 18.5884L80.0523 5.30318L78.3736 4.21607ZM80.1606 1.45645L78.3736 4.21607L80.0523 5.30318L81.8394 2.54355L80.1606 1.45645ZM83.6264 4.21607L81.8394 1.45645L80.1606 2.54355L81.9477 5.30318L83.6264 4.21607ZM108.552 12.2892L94.1564 22.2108L95.2914 23.8576L109.687 13.936L108.552 12.2892ZM113.267 30.1268L110.103 12.9317L108.136 13.2936L111.3 30.4887L113.267 30.1268ZM113.826 33.1634L113.267 30.1268L111.3 30.4887L111.859 33.5253L113.826 33.1634ZM115.653 31.7206L112.633 32.3665L113.052 34.3222L116.071 33.6764L115.653 31.7206ZM132.75 28.0634L115.653 31.7206L116.071 33.6764L133.168 30.0191L132.75 28.0634ZM130.279 46.3474L133.937 29.2504L131.981 28.8321L128.324 45.9291L130.279 46.3474ZM129.634 49.3667L130.279 46.3474L128.324 45.9291L127.678 48.9483L129.634 49.3667ZM131.873 48.7327L128.837 48.174L128.475 50.141L131.511 50.6997L131.873 48.7327ZM149.068 51.8966L131.873 48.7327L131.511 50.6997L148.706 53.8636L149.068 51.8966ZM139.789 67.8436L149.711 53.4476L148.064 52.3127L138.142 66.7086L139.789 67.8436ZM138.037 70.3859L139.789 67.8436L138.142 66.7086L136.39 69.2509L138.037 70.3859ZM140.349 70.6573L137.757 68.979L136.67 70.6578L139.262 72.336L140.349 70.6573ZM155.024 80.1606L140.349 70.6573L139.262 72.336L153.937 81.8394L155.024 80.1606ZM140.349 91.3427L155.024 81.8394L153.937 80.1606L139.262 89.664L140.349 91.3427ZM137.757 93.021L140.349 91.3427L139.262 89.664L136.67 91.3422L137.757 93.021ZM139.789 94.1564L138.037 91.6141L136.39 92.7491L138.142 95.2914L139.789 94.1564ZM149.711 108.552L139.789 94.1564L138.142 95.2914L148.064 109.687L149.711 108.552ZM131.873 113.267L149.068 110.103L148.706 108.136L131.511 111.3L131.873 113.267ZM128.837 113.826L131.873 113.267L131.511 111.3L128.475 111.859L128.837 113.826ZM130.279 115.653L129.634 112.633L127.678 113.052L128.324 116.071L130.279 115.653ZM133.937 132.75L130.279 115.653L128.324 116.071L131.981 133.168L133.937 132.75ZM115.653 130.279L132.75 133.937L133.168 131.981L116.071 128.324L115.653 130.279ZM112.633 129.634L115.653 130.279L116.071 128.324L113.052 127.678L112.633 129.634ZM113.267 131.873L113.826 128.837L111.859 128.475L111.3 131.511L113.267 131.873ZM110.103 149.068L113.267 131.873L111.3 131.511L108.136 148.706L110.103 149.068ZM94.1564 139.789L108.552 149.711L109.687 148.064L95.2914 138.142L94.1564 139.789ZM91.6141 138.037L94.1564 139.789L95.2914 138.142L92.7491 136.39L91.6141 138.037ZM91.3427 140.349L93.021 137.757L91.3422 136.67L89.664 139.262L91.3427 140.349ZM81.8394 155.024L91.3427 140.349L89.664 139.262L80.1606 153.937L81.8394 155.024ZM70.6573 140.349L80.1606 155.024L81.8394 153.937L72.336 139.262L70.6573 140.349ZM68.979 137.757L70.6573 140.349L72.336 139.262L70.6578 136.67L68.979 137.757ZM67.8436 139.789L70.3859 138.037L69.2509 136.39L66.7086 138.142L67.8436 139.789ZM53.4476 149.711L67.8436 139.789L66.7086 138.142L52.3127 148.064L53.4476 149.711ZM48.7327 131.873L51.8966 149.068L53.8636 148.706L50.6997 131.511L48.7327 131.873ZM48.174 128.837L48.7327 131.873L50.6997 131.511L50.141 128.475L48.174 128.837ZM46.3474 130.279L49.3667 129.634L48.9483 127.678L45.9291 128.324L46.3474 130.279ZM29.2504 133.937L46.3474 130.279L45.9291 128.324L28.8321 131.981L29.2504 133.937ZM31.7206 115.653L28.0634 132.75L30.0191 133.168L33.6764 116.071L31.7206 115.653ZM32.3665 112.633L31.7206 115.653L33.6764 116.071L34.3222 113.052L32.3665 112.633ZM30.1268 113.267L33.1634 113.826L33.5253 111.859L30.4887 111.3L30.1268 113.267ZM12.9317 110.103L30.1268 113.267L30.4887 111.3L13.2936 108.136L12.9317 110.103ZM22.2108 94.1564L12.2892 108.552L13.936 109.687L23.8576 95.2914L22.2108 94.1564ZM23.9629 91.6141L22.2108 94.1564L23.8576 95.2914L25.6097 92.7491L23.9629 91.6141ZM21.6511 91.3427L24.2428 93.021L25.3299 91.3422L22.7382 89.664L21.6511 91.3427ZM6.97569 81.8394L21.6511 91.3427L22.7382 89.664L8.0628 80.1606L6.97569 81.8394ZM21.6511 70.6573L6.97569 80.1606L8.0628 81.8394L22.7382 72.336L21.6511 70.6573ZM24.2428 68.979L21.6511 70.6573L22.7382 72.336L25.3299 70.6578L24.2428 68.979ZM22.2108 67.8436L23.9629 70.3859L25.6097 69.2509L23.8576 66.7086L22.2108 67.8436ZM12.2892 53.4476L22.2108 67.8436L23.8576 66.7086L13.936 52.3127L12.2892 53.4476ZM30.1268 48.7327L12.9317 51.8966L13.2936 53.8636L30.4887 50.6997L30.1268 48.7327ZM33.1634 48.174L30.1268 48.7327L30.4887 50.6997L33.5253 50.141L33.1634 48.174ZM31.7206 46.3474L32.3665 49.3667L34.3222 48.9483L33.6764 45.9291L31.7206 46.3474ZM28.0634 29.2504L31.7206 46.3474L33.6764 45.9291L30.0191 28.8321L28.0634 29.2504ZM46.3474 31.7206L29.2504 28.0634L28.8321 30.0191L45.9291 33.6764L46.3474 31.7206ZM49.3667 32.3665L46.3474 31.7206L45.9291 33.6764L48.9483 34.3222L49.3667 32.3665ZM48.7327 30.1268L48.174 33.1634L50.141 33.5253L50.6997 30.4887L48.7327 30.1268ZM51.8966 12.9317L48.7327 30.1268L50.6997 30.4887L53.8636 13.2936L51.8966 12.9317ZM67.8436 22.2108L53.4476 12.2892L52.3127 13.936L66.7086 23.8576L67.8436 22.2108ZM70.3859 23.9629L67.8436 22.2108L66.7086 23.8576L69.2509 25.6097L70.3859 23.9629ZM70.6573 21.6511L68.979 24.2428L70.6578 25.3299L72.336 22.7382L70.6573 21.6511ZM80.1606 6.97569L70.6573 21.6511L72.336 22.7382L81.8394 8.0628L80.1606 6.97569ZM91.3427 21.6511L81.8394 6.97569L80.1606 8.0628L89.664 22.7382L91.3427 21.6511ZM93.021 24.2428L91.3427 21.6511L89.664 22.7382L91.3422 25.3299L93.021 24.2428ZM94.1564 22.2108L91.6141 23.9629L92.7491 25.6097L95.2914 23.8576L94.1564 22.2108ZM81.0734 88.284C81.0222 88.284 80.9998 88.2758 80.9941 88.2735C80.9895 88.2717 80.9794 88.2675 80.961 88.249L79.5468 89.6633C79.9651 90.0816 80.4982 90.284 81.0734 90.284V88.284ZM81.0701 88.316C81.0722 88.3134 81.0781 88.307 81.0881 88.2996C81.0981 88.292 81.1083 88.2864 81.1166 88.2829C81.1246 88.2794 81.1271 88.2795 81.1213 88.2806C81.1152 88.2817 81.0999 88.284 81.0734 88.284V90.284C81.6475 90.284 82.2043 90.079 82.6065 89.5964L81.0701 88.316ZM81.1661 87.9181C81.1661 88.1898 81.1004 88.2805 81.079 88.3054L82.5976 89.6069C83.0133 89.1219 83.1661 88.5205 83.1661 87.9181H81.1661ZM82.0408 61.7147L81.1667 87.8847L83.1655 87.9515L84.0397 61.7814L82.0408 61.7147ZM81.8052 60.8872C81.9187 61.0133 82.0403 61.2547 82.0403 61.748H84.0403C84.0403 60.9302 83.834 60.1517 83.2918 59.5493L81.8052 60.8872ZM81.0734 60.6173C81.516 60.6173 81.6856 60.7428 81.7746 60.8515L83.3225 59.585C82.7558 58.8924 81.942 58.6173 81.0734 58.6173V60.6173ZM80.2836 60.8909C80.4189 60.7421 80.6352 60.6173 81.0734 60.6173V58.6173C80.2004 58.6173 79.3968 58.8932 78.8037 59.5456L80.2836 60.8909ZM80.105 61.6926C80.0782 61.2095 80.1913 60.9935 80.2869 60.8872L78.8003 59.5493C78.2404 60.1715 78.0621 60.9754 78.1081 61.8035L80.105 61.6926ZM80.9256 87.8868L80.1061 61.7167L78.107 61.7793L78.9266 87.9494L80.9256 87.8868ZM81.0676 88.3749C81.0239 88.3138 80.9498 88.161 80.9226 87.835L78.9295 88.0011C78.9752 88.5493 79.1196 89.0886 79.4401 89.5374L81.0676 88.3749ZM81.0734 97.6265C80.5845 97.6265 80.2461 97.4777 79.9776 97.2091L78.5634 98.6234C79.2418 99.3018 80.1054 99.6265 81.0734 99.6265V97.6265ZM82.1415 97.238C81.9291 97.4681 81.616 97.6265 81.0734 97.6265V99.6265C82.0606 99.6265 82.9494 99.3114 83.6112 98.5945L82.1415 97.238ZM82.5866 96.1133C82.5866 96.6022 82.4378 96.9406 82.1692 97.2091L83.5835 98.6234C84.2619 97.9449 84.5866 97.0813 84.5866 96.1133H82.5866ZM82.1692 95.0175C82.4378 95.286 82.5866 95.6244 82.5866 96.1133H84.5866C84.5866 95.1453 84.2619 94.2817 83.5835 93.6032L82.1692 95.0175ZM81.0734 94.6001C81.616 94.6001 81.9291 94.7585 82.1415 94.9886L83.6112 93.6321C82.9494 92.9152 82.0606 92.6001 81.0734 92.6001V94.6001ZM79.9776 95.0175C80.2461 94.7489 80.5845 94.6001 81.0734 94.6001V92.6001C80.1054 92.6001 79.2418 92.9248 78.5633 93.6033L79.9776 95.0175ZM79.5602 96.1133C79.5602 95.6244 79.709 95.286 79.9776 95.0175L78.5634 93.6032C77.8849 94.2817 77.5602 95.1453 77.5602 96.1133H79.5602ZM79.9776 97.2091C79.709 96.9406 79.5602 96.6022 79.5602 96.1133H77.5602C77.5602 97.0813 77.8849 97.9449 78.5634 98.6234L79.9776 97.2091Z" fill="url(#paint0_linear_8777_37210)" mask="url(#path-1-outside-1_8777_37210)"/>
<defs>
<linearGradient id="paint0_linear_8777_37210" x1="2" y1="95" x2="160" y2="103" gradientUnits="userSpaceOnUse">
<stop stop-color="#89898A"/>
<stop offset="0.485" stop-color="white"/>
<stop offset="1" stop-color="#89898A"/>
</linearGradient>
</defs>
</svg>
